<?xml version="1.0"?>
<svg xmlns="http://www.w3.org/2000/svg" height="512px" viewBox="-68 0 512 512" width="512px"><g><path d="m316 0h-256c-33.085938 0-60 26.914062-60 60v392c0 33.085938 26.914062 60 60 60h256c33.085938 0 60-26.914062 60-60v-392c0-33.085938-26.914062-60-60-60zm20 452c0 11.027344-8.972656 20-20 20h-256c-11.027344 0-20-8.972656-20-20v-392c0-11.027344 8.972656-20 20-20h256c11.027344 0 20 8.972656 20 20zm-128-39.878906c0 11.046875-8.953125 20-20 20s-20-8.953125-20-20 8.953125-20 20-20 20 8.953125 20 20zm24.617188-184.304688 58.382812 58.46875-22.726562 22.816406c-6.527344 6.527344-14.234376 10.019532-22.988282 10.019532-4.921875 0-10.175781-1.105469-15.738281-3.398438-24.167969-9.957031-44.734375-16.246094-83.550781-55.054687-38.820313-38.808594-47.292969-58.332031-55.355469-83.191407-4.65625-14.359374-3.578125-28.523437 6.625-38.722656l22.820313-22.632812 56.90625 57.238281-29.226563 29.464844c6.527344 8.589843 15.171875 18.21875 26.511719 29.558593 11.210937 11.207032 20.25 19.03125 28.230468 24.871094zm0 0" data-original="#000000" class="active-path" data-old_color="#000000" fill="#454545"/></g> </svg>
