<?xml version="1.0"?>
<svg xmlns="http://www.w3.org/2000/svg" height="512px" viewBox="0 0 512 512" width="512px"><g><path d="m196.089844 512h-75.515625l83.996093-192.011719-82.425781.011719-70.515625 51h-51.199218l44.472656-120.199219-44.902344-128.800781h50.085938l71.207031 58h83.40625l-85.128907-180h77.535157c19.695312 0 38.441406 8.492188 51.425781 23.300781l.535156.609375.484375.652344 115.4375 155.4375h76.183594c38.589844 0 69.980469 31.394531 69.980469 69.984375 0 38.582031-31.390625 69.976563-69.976563 69.980469l-75.589843.007812-116.0625 166.332032-.480469.585937c-13.042969 15.957031-32.34375 25.109375-52.953125 25.109375zm-14.355469-40h14.355469c8.335937 0 16.152344-3.605469 21.558594-9.914062l127.074218-182.113282 96.449219-.003906c16.53125-.003906 29.980469-13.453125 29.980469-29.984375 0-16.535156-13.449219-29.984375-29.980469-29.984375h-96.300781l-126.886719-170.847656c-5.367187-5.824219-12.9375-9.152344-20.878906-9.152344h-14.367188l85.128907 180h-160.800782l-42.648437-34.738281 22.988281 65.9375-22.511719 60.839843 44.300781-32.039062 156.539063-.019531zm0 0" data-original="#000000" class="active-path" data-old_color="#000000" fill="#454545"/></g> </svg>
