<?xml version="1.0"?>
<svg xmlns="http://www.w3.org/2000/svg" height="512px" viewBox="-21 -77 682.66669 682" width="512px" class=""><g><path d="m595.371094 206.914062-50.011719-22.140624-81.695313-149.210938c-13.164062-24.046875-38.371093-38.980469-65.789062-38.980469-.003906 0-.015625 0-.019531 0l-322.886719.097657c-41.335938.015624-74.96875 33.664062-74.96875 75v328.769531c0 41.355469 33.640625 75 75 75h23.050781c10.316407 29.097656 38.105469 50 70.699219 50s60.382812-20.902344 70.699219-50h154.851562c10.316407 29.097656 38.105469 50 70.699219 50s60.382812-20.902344 70.699219-50h29.300781c41.359375 0 75-33.644531 75-75v-124.960938c0-29.648437-17.519531-56.566406-44.628906-68.574219zm-197.5-160.332031h.003906c9.140625 0 17.546875 4.980469 21.933594 12.996094l71.660156 130.871094h-138.96875v-143.851563zm-95.371094 143.867188h-100v-143.808594l100-.027344zm-227.507812-143.769531 77.507812-.023438v143.792969h-102.5v-118.769531c0-13.777344 11.210938-24.992188 24.992188-25zm-24.992188 353.769531v-160h252.5v185h-63.050781c-10.316407-29.09375-38.105469-50-70.699219-50s-60.382812 20.90625-70.699219 50h-23.050781c-13.785156 0-25-11.214844-25-25zm118.75 75c-13.785156 0-25-11.214844-25-25 0-13.78125 11.214844-25 25-25s25 11.21875 25 25c0 13.785156-11.214844 25-25 25zm296.25 0c-13.785156 0-25-11.214844-25-25 0-13.78125 11.214844-25 25-25s25 11.21875 25 25c0 13.785156-11.214844 25-25 25zm125-75c0 13.785156-11.214844 25-25 25h-29.300781c-10.316407-29.09375-38.105469-50-70.699219-50s-60.382812 20.90625-70.699219 50h-41.800781v-185h193.75v-.605469l28.871094 12.789062c9.039062 4 14.878906 12.972657 14.878906 22.855469zm0 0" data-original="#000000" class="active-path" data-old_color="#000000" fill="#454545"/></g> </svg>
